<?xml version="1.0" standalone="no"?><!DOCTYPE svg PUBLIC "-//W3C//DTD SVG 1.1//EN" "http://www.w3.org/Graphics/SVG/1.1/DTD/svg11.dtd"><svg t="1552633867655" class="icon" style="" viewBox="0 0 1433 1024" version="1.1" xmlns="http://www.w3.org/2000/svg" p-id="5391" xmlns:xlink="http://www.w3.org/1999/xlink" width="279.8828125" height="200"><defs><style type="text/css"></style></defs><path d="M1433.6 492.57931a37.370115 37.370115 0 0 0-6.767816-20.597701L1206.436782 138.004598a39.429885 39.429885 0 0 0-32.662069-17.36092H875.402299a39.135632 39.135632 0 0 0-39.135632 39.429885v643.825288a39.135632 39.135632 0 0 0 39.135632 39.429885h80.331034a179.2 179.2 0 1 0 358.4 0h80.331035a39.429885 39.429885 0 0 0 39.135632-39.429885V492.57931z m-418.133333-10.887356V240.993103h150.951724l159.485057 240.698851z m119.466666 451.972414a90.335632 90.335632 0 1 1 88.275862-90.335632 90.335632 90.335632 0 0 1-88.275862 90.335632zM724.450575 0H52.082759A52.377011 52.377011 0 0 0 0 52.377011v738.28046a52.377011 52.377011 0 0 0 52.082759 52.377012h127.117241a179.2 179.2 0 1 0 358.4 0h186.850575a52.377011 52.377011 0 0 0 52.082758-52.377012V52.377011A52.377011 52.377011 0 0 0 724.450575 0zM358.4 933.664368a90.335632 90.335632 0 1 1 88.275862-90.335632 90.335632 90.335632 0 0 1-88.275862 90.335632z" fill="#DEC592" p-id="5392"></path></svg>